# xmcd
#
# Track frame offsets:
#	150
#	20130
#	39948
#	60351
#	75134
#	95446
#	108191
#	126283
#	144578
#	155465
#	166786
#	182767
#
# Disc length: 2790 seconds
#
# Revision: 1
# Processed by: cddbd v1.5.2PL0 Copyright (c) Steve Scherf et al.
# Submitted via: audiograbber 1.83.01
#
DISCID=890ae40c
DTITLE=Ансамбль Пятый Корпус - Винчестер
DYEAR=2007
DGENRE=Blues
TTITLE0=Remake
TTITLE1=Мексиканцы
TTITLE2=Шмидт
TTITLE3=Капитанская дочка
TTITLE4=Матрос
TTITLE5=Конец квартала
TTITLE6=Сапог
TTITLE7=Жуки (Конец футбола)
TTITLE8=Уфалей
TTITLE9=Винчестер
TTITLE10=Космос
TTITLE11=Рыба
EXTD=
EXTT0=
EXTT1=
EXTT2=
EXTT3=
EXTT4=
EXTT5=
EXTT6=
EXTT7=
EXTT8=
EXTT9=
EXTT10=
EXTT11=
PLAYORDER=
